<svg xmlns="http://www.w3.org/2000/svg" width="1040" height="300" viewBox="0 0 1040 300">
<g transform="translate(7.61,30.59) scale(1.2439)">
  <rect x="39.5" y="146" width="13" height="22" rx="6" fill="#BA0C2F"/>
  <rect x="57.5" y="126" width="13" height="42" rx="6" fill="#BA0C2F"/>
  <rect x="75.5" y="106" width="13" height="62" rx="6" fill="#BA0C2F"/>
  <rect x="93.5" y="78"  width="13" height="90" rx="6" fill="#16294E"/>
  <rect x="111.5" y="106" width="13" height="62" rx="6" fill="#BA0C2F"/>
  <rect x="129.5" y="126" width="13" height="42" rx="6" fill="#BA0C2F"/>
  <rect x="147.5" y="146" width="13" height="22" rx="6" fill="#BA0C2F"/>
  <path d="M100,27 L103.8,42.2 L119,46 L103.8,49.8 L100,65 L96.2,49.8 L81,46 L96.2,42.2 Z" fill="#B6892B"/>
</g>
<line x1="262" y1="72" x2="262" y2="240" stroke="#16294E" stroke-opacity="0.3" stroke-width="2"/>
  <path d="M296.70623828125 82.89152075195312H309.31488220214845V84.40423693847656H296.70623828125ZM305.7297603759766 81.36119677734375 306.67047790527346 80.40375903320313Q307.27327844238283 80.67743908691406 307.9262389526367 81.08531927490235Q308.57919946289064 81.49319946289063 308.9329598388672 81.86455957031251L307.95528247070314 82.91263720703125Q307.60152209472653 82.53159704589844 306.9670415039062 82.09423693847657Q306.33256091308596 81.65687683105469 305.7297603759766 81.36119677734375ZM306.9529638671875 85.24287951660156 308.58887951660154 85.57199865722656Q307.7651994628906 88.59831994628907 306.1732791137695 90.85728045654298Q304.5813587646484 93.11624096679688 302.3558380126953 94.5673614501953Q302.25023828125 94.40280187988282 302.0341987915039 94.16080255126954Q301.8181593017578 93.91880322265625 301.59463989257813 93.6719638671875Q301.37112048339844 93.42512451171875 301.18456091308593 93.28520483398438Q303.3458420410156 92.04000402832031 304.80268273925776 89.99136279296874Q306.2595234375 87.94272155761719 306.9529638671875 85.24287951660156ZM296.4712784423828 91.62376440429688Q297.7147188720703 91.44864392089843 299.418399597168 91.18948327636718Q301.1220803222656 90.93032263183593 302.92960107421874 90.64080187988282L302.9859210205078 92.06287817382812Q301.32272021484374 92.3576787109375 299.6911994628906 92.64983935546876Q298.0596787109375 92.94200000000001 296.7035983886719 93.17608032226562ZM298.7874364013672 86.79167736816406V88.66696252441406H300.8484029541016V86.79167736816406ZM297.3882396240234 85.61159973144531H302.3091994628906V89.84704016113281H297.3882396240234ZM302.9472021484375 80.74343774414062H304.6939973144531Q304.7863975830078 82.95487951660157 304.9958380126953 85.00660107421875Q305.2052784423828 87.05832263183594 305.5607991943359 88.70612384033203Q305.91631994628904 90.35392504882813 306.4337610473633 91.36592572021485Q306.9512021484375 92.37792639160156 307.6376037597656 92.50992639160157Q307.8620040283203 92.56624633789062 308.0045642700195 91.95200604248046Q308.14712451171874 91.3377657470703 308.2421646728516 90.30992504882812Q308.416404296875 90.47448461914063 308.6522436523437 90.67116400146485Q308.8880830078125 90.86784338378907 309.14108233642577 91.03020281982421Q309.39408166503904 91.19256225585937 309.5683212890625 91.28848193359374Q309.3333614501953 93.19280053710938 308.663242980957 93.87964056396484Q307.99312451171875 94.56648059082032 307.02512585449216 94.16344177246094Q305.92864526367185 93.8862423095703 305.2061646728515 92.68988220214842Q304.48368408203123 91.49352209472656 304.03488354492185 89.63936145019531Q303.5860830078125 87.78520080566406 303.33616265869136 85.4989598388672Q303.0862423095703 83.21271887207031 302.9472021484375 80.74343774414062ZM293.70104150390625 78.41144177246093H312.2963186035156V97.9236787109375H310.2318447265625V80.29375634765626H295.6792757568359V97.9236787109375H293.70104150390625ZM294.93743774414065 95.0575234375H311.36704150390625V96.93983801269532H294.93743774414065Z" fill="#6B7280"/>
  <path d="M321.0539210205078 81.49496252441406H339.0120789794922V83.58671618652343H321.0539210205078ZM320.0903212890625 94.85776440429687H339.92199865722654V96.96183801269531H320.0903212890625ZM323.97640295410156 85.02551806640625 326.0584765625 84.53359973144532Q326.49319677734377 85.9724002685547 326.9045970458984 87.58808099365234Q327.3159973144531 89.20376171875 327.6578775024414 90.74860241699218Q327.9997576904297 92.29344311523438 328.1757576904297 93.53424365234375L325.96080456542967 94.08776171875Q325.81208435058596 92.85664123535156 325.49352410888673 91.29332061767579Q325.1749638671875 89.73 324.77588354492184 88.0909993286133Q324.37680322265624 86.45199865722657 323.97640295410156 85.02551806640625ZM333.9635234375 84.56351940917969 336.3131164550781 84.99911779785157Q335.9417563476562 86.36575769042969 335.51187615966796 87.82787817382813Q335.0819959716797 89.28999865722656 334.6094357299805 90.72351940917969Q334.13687548828125 92.15704016113281 333.664315246582 93.43656091308594Q333.1917550048828 94.71608166503906 332.74735473632813 95.73952209472657L330.6925609130859 95.25992370605469Q331.14928112792967 94.23384338378906 331.6143614501953 92.90768273925781Q332.07944177246094 91.58152209472657 332.5225220947266 90.12600134277343Q332.96560241699217 88.67048059082032 333.33652276611326 87.24268005371094Q333.70744311523435 85.81487951660156 333.9635234375 84.56351940917969ZM328.2100830078125 77.77784069824219 330.2604765625 77.24720214843751Q330.6027965087891 78.0832021484375 330.93279650878907 79.06836212158203Q331.26279650878905 80.05352209472656 331.43175634765623 80.76984204101562L329.27576306152343 81.39640026855469Q329.1340830078125 80.66776037597657 328.830923034668 79.6469605102539Q328.52776306152344 78.62616064453125 328.2100830078125 77.77784069824219Z" fill="#6B7280"/>
  <path d="M347.32352075195314 78.63496252441406H366.7354390869141V79.99719946289062H347.32352075195314ZM347.37191967773435 95.92080187988282H366.6870401611328V97.37191833496094H347.37191967773435ZM348.99727978515625 80.95288220214844H365.0344002685547V82.24119946289062H348.99727978515625ZM349.872880859375 89.3023212890625H363.9863199462891V90.49471887207031H349.872880859375ZM349.5111994628906 93.65480187988281H364.70791967773437V94.94575903320313H349.5111994628906ZM347.6491218261719 87.12960241699218H366.37551806640624V90.34600134277343H364.4096037597656V88.49447924804687H349.52879650878907V90.34600134277343H347.6491218261719ZM355.88416333007814 77.41000134277344H357.98559704589843V81.7510401611328H355.88416333007814ZM355.88416333007814 92.17816064453125H357.98559704589843V96.65472021484375H355.88416333007814ZM351.8431954345703 84.15783935546875V85.20328247070313H362.16648461914065V84.15783935546875ZM349.91424096679685 83.05168139648438H364.2063186035156V86.31912048339844H349.91424096679685ZM359.2176024169922 90.63287951660156 360.44343908691405 89.70976171875Q361.1940789794922 90.07144177246094 361.9948788452149 90.55544177246094Q362.7956787109375 91.03944177246093 363.51463854980466 91.54544177246093Q364.23359838867185 92.05144177246093 364.70087817382813 92.46944177246094L363.46008166503907 93.51047924804688Q362.99544177246094 93.07047924804688 362.28264190673826 92.54115930175782Q361.56984204101565 92.01183935546875 360.76904217529295 91.5045194091797Q359.9682423095703 90.99719946289062 359.2176024169922 90.63287951660156ZM350.7194404296875 93.0687188720703Q350.6604805908203 92.83815930175781 350.52672088623046 92.39288018798828Q350.3929611816406 91.94760107421875 350.2653614501953 91.65808166503906Q350.7960013427734 91.62112182617187 351.4507215576172 91.38440161132813Q351.6900816650391 91.28672155761718 352.2273219604492 91.04648126220704Q352.76456225585935 90.80624096679688 353.4091626586914 90.45248059082031Q354.05376306152345 90.09872021484375 354.6178433837891 89.67631994628906L356.1006398925781 90.213119140625Q355.0111994628906 90.94087951660157 353.8993192749023 91.48075970458984Q352.78743908691405 92.02063989257813 351.76135876464843 92.31104016113281V92.33304016113281Q351.76135876464843 92.33304016113281 351.5039591674805 92.44831994628906Q351.2465595703125 92.56359973144531 350.983 92.73035943603514Q350.7194404296875 92.897119140625 350.7194404296875 93.0687188720703ZM350.7194404296875 93.0687188720703V92.07520080566407L351.66279919433595 91.60440161132813L362.44104150390626 91.45304150390625Q362.48504150390625 91.71792102050782 362.55720147705074 92.04924029541016Q362.6293614501953 92.3805595703125 362.6883212890625 92.60143908691407Q359.5898406982422 92.66743908691406 357.5249203491211 92.71759906005859Q355.46 92.76775903320312 354.1914799194336 92.8055990600586Q352.9229598388672 92.84343908691406 352.23479986572266 92.8825990600586Q351.5466398925781 92.92175903320313 351.2285200805664 92.96707897949219Q350.91040026855467 93.01239892578126 350.7194404296875 93.0687188720703Z" fill="#6B7280"/>
  <path d="M384.0008795166016 81.47912048339843H388.1430388183594V82.53335876464844H384.0008795166016ZM384.0008795166016 83.152H388.1430388183594V84.19655822753906H384.0008795166016ZM380.78447790527343 93.27552075195312H391.94024096679686V94.61311779785156H380.78447790527343ZM383.35583935546873 79.62936145019532H388.6525595703125V80.797119140625H383.35583935546873ZM385.2504765625 85.9327978515625V87.17624096679688H386.8248018798828V85.9327978515625ZM383.9621593017578 84.90319946289063H388.1527188720703V88.19615930175782H383.9621593017578ZM381.15407897949217 91.094880859375H390.29728381347655V90.14183801269532H379.8059196777344V88.89048059082032H392.23855822753904V92.34623828125H381.15407897949217ZM380.5521606445312 91.094880859375H382.4811151123047Q382.2611151123047 92.01536010742187 382.01295513916017 92.95431927490233Q381.76479516601563 93.89327844238281 381.53247521972656 94.61311779785156H379.578880859375Q379.84552075195313 93.86159838867188 380.0998406982422 92.91163922119141Q380.35416064453125 91.96168005371094 380.5521606445312 91.094880859375ZM391.2908032226562 93.27552075195312H393.2443975830078Q393.2443975830078 93.27552075195312 393.22107763671875 93.57120013427735Q393.1977576904297 93.86687951660156 393.12911779785156 94.063119140625Q392.83167736816404 95.43591967773438 392.50079718017577 96.21559973144531Q392.1699169921875 96.99527978515626 391.72023693847655 97.34991967773438Q391.345357421875 97.61479919433594 390.9163580932617 97.71291900634766Q390.48735876464843 97.81103881835938 389.8898393554687 97.8356787109375Q389.3855997314453 97.84799865722657 388.44927978515625 97.8321586303711Q387.5129598388672 97.81631860351563 386.46927978515623 97.77495849609375Q386.44727978515624 97.42383935546874 386.29372021484374 96.9829605102539Q386.14016064453125 96.54208166503906 385.9069611816406 96.20328247070313Q386.9400816650391 96.30096252441406 387.90676171875 96.32780255126953Q388.8734417724609 96.354642578125 389.28176171875 96.354642578125Q389.63112182617186 96.354642578125 389.84628179931644 96.32648260498047Q390.06144177246097 96.29832263183594 390.22776171875 96.18832263183593Q390.5278420410156 95.96392236328126 390.78876239013675 95.33164190673828Q391.04968273925783 94.69936145019531 391.2784832763672 93.4964002685547ZM374.15016198730467 79.0899169921875 375.3443186035156 77.7083212890625Q375.90399865722657 78.00136145019532 376.51163854980473 78.40440161132813Q377.11927844238284 78.80744177246093 377.64507830810544 79.22280187988281Q378.1708781738281 79.63816198730468 378.50351806640623 79.99984204101563L377.2380816650391 81.55567736816407Q376.93008166503904 81.17199731445312 376.4166017456055 80.73331726074218Q375.90312182617185 80.29463720703126 375.3064819335938 79.86211712646485Q374.70984204101563 79.42959704589845 374.15016198730467 79.0899169921875ZM373.6714417724609 84.96567736816407 374.8286385498047 83.52776171875Q375.39799865722654 83.79880187988282 376.02015863037104 84.17500201416016Q376.6423186035156 84.5512021484375 377.19011846923826 84.93840228271483Q377.7379183349609 85.32560241699218 378.08023828125 85.67496252441407L376.8614417724609 87.25543774414062Q376.54376171875 86.90607763671875 376.0034417724609 86.48939758300781Q375.46312182617186 86.07271752929688 374.8519618530273 85.66703747558594Q374.24080187988284 85.261357421875 373.6714417724609 84.96567736816407ZM374.12200134277344 96.52536145019532Q374.54000134277345 95.65504150390625 375.0178413696289 94.49036145019531Q375.4956813964844 93.32568139648437 375.9906813964844 92.02152142333983Q376.4856813964844 90.71736145019531 376.89400134277344 89.46512182617188L378.5431164550781 90.5316787109375Q378.19111645507815 91.69063854980469 377.7550762939453 92.92483868408203Q377.31903613281247 94.15903881835938 376.87199597167967 95.34571887207031Q376.42495581054686 96.53239892578125 375.98495581054686 97.58663854980469ZM381.72872021484375 82.53863989257812 382.6676787109375 82.21480053710937Q382.9950388183594 82.73576037597657 383.2880789794922 83.36936010742187Q383.581119140625 84.00295983886718 383.68847924804686 84.44559973144531L382.724880859375 84.86975903320312Q382.60784069824217 84.405119140625 382.33064056396483 83.74467938232422Q382.0534404296875 83.08423962402344 381.72872021484375 82.53863989257812ZM381.90208032226565 85.41271887207031 382.8067188720703 85.08887951660157Q383.075119140625 85.64327978515625 383.2885194091797 86.298Q383.50191967773435 86.95272021484375 383.55559973144534 87.42176037597656L382.60168139648437 87.83623962402343Q382.5383212890625 87.35487951660156 382.33724096679686 86.67331927490234Q382.13616064453123 85.99175903320312 381.90208032226565 85.41271887207031ZM378.7543212890625 85.4945595703125 379.8455194091797 85.76207897949219Q379.7064792480469 86.56375903320313 379.467119140625 87.3786392211914Q379.22775903320314 88.19351940917969 378.9100789794922 88.78223962402343Q378.7481593017578 88.63 378.4564397583008 88.42760040283203Q378.1647202148437 88.22520080566406 377.95880053710937 88.11960107421875Q378.2835207519531 87.55552075195313 378.4604009399414 86.87176037597656Q378.63728112792967 86.188 378.7543212890625 85.4945595703125ZM378.6390401611328 81.87335876464844Q378.5924002685547 81.72639892578125 378.4599605102539 81.42499932861328Q378.3275207519531 81.12359973144531 378.21224096679686 80.93968005371094Q378.412880859375 80.89568005371093 378.56820080566405 80.74520013427734Q378.7235207519531 80.59472021484375 378.8898406982422 80.35008032226563Q379.01216064453126 80.20576037597657 379.2748406982422 79.77412048339843Q379.53752075195314 79.34248059082032 379.81120080566404 78.75684069824219Q380.084880859375 78.17120080566406 380.24856091308595 77.586880859375L381.4726385498047 78.026Q381.09159838867185 78.92536010742188 380.52751873779295 79.80579986572266Q379.96343908691404 80.68623962402344 379.38087951660157 81.33215930175781V81.35415930175782Q379.38087951660157 81.35415930175782 379.19475970458984 81.43995916748048Q379.0086398925781 81.52575903320313 378.82384002685546 81.6445588989258Q378.6390401611328 81.76335876464844 378.6390401611328 81.87335876464844ZM378.6390401611328 81.87335876464844 378.60208032226564 80.93880053710937 379.357119140625 80.57360107421874 381.84487951660157 80.43720080566406Q381.7859196777344 80.68976037597656 381.7366398925781 80.99159973144532Q381.68736010742185 81.29343908691406 381.68472021484376 81.50199865722657Q380.58295983886717 81.57503881835937 379.96827978515626 81.64103881835938Q379.3535997314453 81.70703881835938 379.06979986572264 81.76203881835937Q378.786 81.81703881835938 378.6390401611328 81.87335876464844ZM378.6935997314453 84.85039892578125Q378.65927978515623 84.70343908691406 378.5206800537109 84.39587951660155Q378.3820803222656 84.08831994628906 378.26680053710936 83.9044002685547Q378.5334404296875 83.86040026855468 378.7754404296875 83.65624029541016Q379.0174404296875 83.45208032226563 379.3034404296875 83.13176037597657Q379.5234404296875 82.9214404296875 379.98280053710937 82.35428045654297Q380.44216064453127 81.78712048339844 380.95520080566405 81.02064056396485Q381.4682409667969 80.25416064453125 381.8589611816406 79.46216064453125L383.01175903320313 79.99191967773437Q382.3086385498047 81.15263989257812 381.4017985229492 82.29179986572265Q380.4949584960938 83.43095983886718 379.5463186035156 84.2845595703125V84.31887951660156Q379.5463186035156 84.31887951660156 379.3355588989258 84.4095194091797Q379.12479919433594 84.50015930175782 378.9091994628906 84.61895916748048Q378.6935997314453 84.73775903320313 378.6935997314453 84.85039892578125ZM378.6935997314453 84.85039892578125 378.6196800537109 83.89120080566406 379.313119140625 83.5163212890625 382.7090401611328 83.13528112792969Q382.73368005371094 83.3464805908203 382.80979986572265 83.64215997314453Q382.88591967773436 83.93783935546875 382.9448795166016 84.12175903320312Q381.2904792480469 84.339119140625 380.4386392211914 84.47727911376953Q379.5867991943359 84.61543908691407 379.23083935546873 84.69375903320312Q378.87487951660154 84.77207897949219 378.6935997314453 84.85039892578125ZM380.2195207519531 85.72335876464844 381.2077590332031 85.47783935546875Q381.41279919433595 86.09823962402344 381.5469993286133 86.81631994628907Q381.6811994628906 87.53440026855469 381.7031994628906 88.02808032226562L380.6683212890625 88.37127978515625Q380.6463212890625 87.84591967773437 380.5292811279297 87.10099932861328Q380.4122409667969 86.3560789794922 380.2195207519531 85.72335876464844ZM384.79991967773435 77.94240026855469 386.19471618652346 77.63352075195313Q386.44111645507815 78.01720080566406 386.69367669677735 78.51704083251953Q386.94623693847655 79.016880859375 387.07559704589846 79.36624096679688L385.6218406982422 79.7534404296875Q385.5144805908203 79.36976037597657 385.27424029541015 78.86508032226563Q385.034 78.36040026855468 384.79991967773435 77.94240026855469ZM392.073119140625 82.51487951660157 392.9803975830078 82.19104016113282Q393.3367978515625 82.73136010742188 393.64919812011715 83.39884002685548Q393.96159838867186 84.06631994628907 394.0786385498047 84.51863989257812L393.12472021484376 84.93047924804688Q392.998 84.44647924804687 392.6917597045898 83.76667938232421Q392.38551940917966 83.08687951660156 392.073119140625 82.51487951660157ZM392.2218393554688 85.38895849609375 393.12911779785156 85.05279919433593Q393.4485582275391 85.7075194091797 393.6997985229492 86.47839959716796Q393.9510388183594 87.24927978515625 394.0267188720703 87.79663989257813L393.06312048339845 88.233119140625Q392.9900803222656 87.66375903320312 392.756 86.85987884521484Q392.5219196777344 86.05599865722657 392.2218393554688 85.38895849609375ZM389.0890401611328 85.40919946289063 390.1899183349609 85.67935876464844Q390.0508781738281 86.46871887207031 389.8066780395508 87.28843908691405Q389.56247790527345 88.10815930175781 389.25447790527346 88.69687951660157Q389.0925582275391 88.54463989257812 388.800838684082 88.34224029541015Q388.509119140625 88.13984069824218 388.30319946289063 88.02456091308593Q388.6279196777344 87.47016064453125 388.79995983886715 86.78156024169922Q388.972 86.09295983886719 389.0890401611328 85.40919946289063ZM388.9834390869141 81.84959838867188Q388.93679919433595 81.70263854980469 388.80435943603516 81.39639892578126Q388.67191967773437 81.09015930175781 388.5566398925781 80.90623962402344Q388.7449598388672 80.87191967773438 388.90159973144534 80.72143975830079Q389.05823962402343 80.5709598388672 389.2245595703125 80.32631994628906Q389.35655957031247 80.17231994628906 389.60823962402344 79.74068005371095Q389.85991967773435 79.30904016113281 390.1445997314453 78.72824029541016Q390.42927978515627 78.14744042968749 390.59295983886716 77.56312048339844L391.807357421875 78.01191967773437Q391.4359973144531 78.89191967773438 390.8719176635742 79.77235943603516Q390.3078380126953 80.65279919433594 389.72527844238283 81.29871887207031V81.32071887207032Q389.72527844238283 81.32071887207032 389.5453186035156 81.41135876464844Q389.3653587646484 81.50199865722657 389.17439892578125 81.62079852294923Q388.9834390869141 81.73959838867188 388.9834390869141 81.84959838867188ZM388.9834390869141 81.84959838867188 388.9464792480469 80.92736010742188 389.6918380126953 80.54984069824219 392.17695849609373 80.4134404296875Q392.11799865722656 80.65631994628906 392.06871887207035 80.96299932861328Q392.0194390869141 81.2696787109375 392.02911914062497 81.47823828125Q390.9150388183594 81.55127844238281 390.3003587646484 81.61727844238281Q389.6856787109375 81.68327844238281 389.4080388183594 81.73343841552735Q389.13039892578126 81.78359838867188 388.9834390869141 81.84959838867188ZM389.0379986572266 84.82663854980468Q389.0036787109375 84.6796787109375 388.8650789794922 84.36727911376953Q388.72647924804687 84.05487951660156 388.5988795166016 83.8709598388672Q388.8778393554687 83.82695983886718 389.11983935546874 83.62763989257812Q389.36183935546876 83.42831994628907 389.64783935546876 83.108Q389.86783935546873 82.89768005371094 390.3223594360352 82.3305200805664Q390.7768795166016 81.76336010742187 391.28991967773436 80.99688018798828Q391.8029598388672 80.23040026855469 392.1813601074219 79.43840026855469L393.3561579589844 79.95847924804687Q392.65303747558596 81.12887951660156 391.74619744873047 82.26319946289063Q390.839357421875 83.3975194091797 389.8783975830078 84.26079919433593V84.295119140625Q389.8783975830078 84.295119140625 389.67379785156254 84.38575903320313Q389.4691981201172 84.47639892578125 389.2535983886719 84.59519879150392Q389.0379986572266 84.71399865722657 389.0379986572266 84.82663854980468ZM389.0379986572266 84.82663854980468 388.9640789794922 83.85776037597657 389.64783801269533 83.49256091308594 393.05343908691407 83.10184069824219Q393.0780789794922 83.33504016113281 393.1541987915039 83.6245595703125Q393.2303186035156 83.91407897949219 393.2892784423828 84.08831860351563Q391.6348781738281 84.31799865722657 390.7830381469727 84.45483868408203Q389.9311981201172 84.5916787109375 389.57523828125 84.66999865722656Q389.2192784423828 84.74831860351563 389.0379986572266 84.82663854980468ZM390.51463989257815 85.71191833496094 391.4931981201172 85.45671887207031Q391.7175983886719 86.14047924804687 391.8689584960938 86.9245595703125Q392.02031860351565 87.70863989257812 392.02999865722654 88.24368005371093L390.9951204833984 88.58687951660156Q390.9854404296875 88.03247924804688 390.85740026855467 87.21539892578124Q390.7293601074219 86.39831860351562 390.51463989257815 85.71191833496094Z" fill="#6B7280"/>
  <path d="M401.31120080566404 83.57528381347656H420.76183935546874V85.71631726074219H401.31120080566404ZM412.27863720703124 84.43328112792969Q412.9843975830078 87.0301619873047 414.18383801269533 89.27636279296875Q415.3832784423828 91.52256359863281 417.131838684082 93.20336413574219Q418.88039892578126 94.88416467285157 421.1763186035156 95.83720483398437Q420.91583935546873 96.06336413574219 420.6245602416992 96.4136030883789Q420.3332811279297 96.76384204101562 420.06664190673825 97.12772088623046Q419.8000026855469 97.49159973144532 419.6231231689453 97.78903881835937Q417.1820040283203 96.637119140625 415.3670040283203 94.76095916748048Q413.5520040283203 92.88479919433594 412.29360375976563 90.39747924804688Q411.03520349121095 87.91015930175782 410.1965635986328 84.92959973144531ZM409.86568408203124 77.44168139648437H412.1272770996094Q412.1149571533203 78.98431994628906 412.0379571533203 80.77863922119141Q411.9609571533203 82.57295849609375 411.69695715332034 84.46891833496093Q411.43295715332033 86.36487817382813 410.84027709960935 88.25907830810547Q410.24759704589843 90.15327844238281 409.1893969116211 91.90799865722656Q408.13119677734375 93.66271887207031 406.48515661621093 95.17191900634765Q404.8391164550781 96.681119140625 402.4587161865234 97.79871887207031Q402.21055688476565 97.38072021484375 401.7670381469727 96.88660174560547Q401.3235194091797 96.39248327636719 400.880880859375 96.05808435058594Q403.1776813964844 95.036404296875 404.74496185302735 93.66360375976564Q406.3122423095703 92.29080322265625 407.29300268554687 90.67380255126953Q408.2737630615234 89.05680187988281 408.8061633300781 87.3188012084961Q409.3385635986328 85.58080053710938 409.5484437866211 83.83488018798829Q409.75832397460937 82.08895983886718 409.8058440551758 80.4605200805664Q409.8533641357422 78.83208032226563 409.86568408203124 77.44168139648437Z" fill="#6B7280"/>
  <path d="M428.09560107421873 91.95200134277344H447.9035194091797V93.65655688476562H428.09560107421873ZM432.27295983886717 88.13016064453124H442.3524846191406V89.64287683105469H432.27295983886717ZM437.2027229003906 91.14679919433594H439.2451967773437V95.78176306152343Q439.2451967773437 96.52272155761719 439.0379571533203 96.92532061767578Q438.83071752929686 97.32791967773437 438.2349584960937 97.54879919433594Q437.64887951660154 97.7476787109375 436.7596398925781 97.77847857666016Q435.8704002685547 97.80927844238282 434.5732797851563 97.80927844238282Q434.502 97.40359973144531 434.3031204833984 96.91696118164063Q434.10424096679685 96.43032263183593 433.89304150390626 96.05456359863281Q434.5196024169922 96.07656359863282 435.1070026855469 96.08756359863281Q435.6944029541016 96.09856359863281 436.1405629272461 96.09372357177733Q436.5867229003906 96.08888354492187 436.75040295410156 96.08888354492187Q437.01440295410157 96.07920349121093 437.1085629272461 96.00352343750001Q437.2027229003906 95.92784338378907 437.2027229003906 95.72016333007812ZM441.82888623046875 88.13016064453124H442.3278447265625L442.7652034912109 88.02456091308593L443.9664002685547 89.09375769042968Q443.1788005371094 89.68775769042969 442.2108005371094 90.25887750244141Q441.24280053710936 90.82999731445312 440.21012048339844 91.3329169921875Q439.1774404296875 91.83583666992187 438.1724805908203 92.23007629394532Q438.01056091308595 91.97223693847656 437.71092169189455 91.65411779785157Q437.4112824707031 91.33599865722657 437.2027229003906 91.14679919433594Q438.03520349121095 90.82383935546875 438.9178440551758 90.3675595703125Q439.8004846191406 89.91127978515625 440.57312518310545 89.41495983886719Q441.3457657470703 88.91863989257813 441.82888623046875 88.49359973144531ZM428.5320816650391 85.32560107421875H447.54359838867185V89.57247790527344H445.47912451171874V86.87527709960938H430.51031591796874V89.57247790527344H428.5320816650391ZM444.3632838134766 78.20816198730469H446.3441579589844Q446.27815795898437 79.50968139648438 446.1901579589844 80.9599210205078Q446.1021579589844 82.41016064453125 445.99215795898436 83.77108032226562Q445.88215795898435 85.132 445.7598380126953 86.1325595703125H443.75432397460935Q443.89864392089845 85.09768005371095 444.0209638671875 83.7319203491211Q444.14328381347656 82.36616064453125 444.2312838134766 80.91592102050781Q444.31928381347655 79.46568139648437 444.3632838134766 78.20816198730469ZM441.0228005371094 78.20816198730469H445.17904150390626V79.57303881835938H441.0228005371094ZM434.1922409667969 77.58512182617187 435.0810388183594 78.81799865722657Q434.0901593017578 79.20695849609375 432.8269196777344 79.47139825439453Q431.5636800537109 79.73583801269531 430.5684002685547 79.89247790527344L429.8292021484375 78.72824096679688Q430.48216198730466 78.60592102050782 431.27812182617185 78.41012115478516Q432.07408166503905 78.2143212890625 432.8493614501953 77.99036145019531Q433.6246412353516 77.76640161132812 434.1922409667969 77.58512182617187ZM430.8799196777344 80.58240161132812H434.9340789794922V81.93495849609376H430.8799196777344ZM430.96 82.9443212890625H435.0141593017578V84.29687817382813H430.96ZM441.1477603759766 80.58240161132812H444.9951218261719V81.93495849609376H441.1477603759766ZM441.0280803222656 82.9443212890625H444.8367215576172V84.29687817382813H441.0280803222656ZM438.9653614501953 77.59744177246094 440.35751806640627 77.99784069824219Q439.6218380126953 79.00984069824219 438.4826780395508 79.91668072509765Q437.34351806640626 80.82352075195313 436.2311981201172 81.42456091308594Q436.05431860351564 81.22568139648438 435.7045194091797 80.92252209472656Q435.3547202148437 80.61936279296876 435.096880859375 80.45480322265625Q436.23120080566406 79.92504284667969 437.2819210205078 79.18012249755859Q438.33264123535156 78.4352021484375 438.9653614501953 77.59744177246094ZM435.53512048339843 78.67984069824219 436.5171981201172 77.82360241699219Q437.22559838867187 78.14128247070312 437.98899865722655 78.56896252441406Q438.7523989257812 78.996642578125 439.43395916748045 79.44148260498048Q440.1155194091797 79.88632263183594 440.55287951660154 80.27968273925781L439.52152209472655 81.22920080566406Q439.10880187988283 80.8358406982422 438.4430816650391 80.37516064453126Q437.7773614501953 79.91448059082032 437.0152811279297 79.46832061767579Q436.25320080566405 79.02216064453125 435.53512048339843 78.67984069824219ZM439.00408166503905 81.30576171875 440.40855822753906 81.7378406982422Q439.6165582275391 82.81144042968751 438.4210783081055 83.76976037597657Q437.22559838867187 84.72808032226563 436.0226385498047 85.36608032226563Q435.8580789794922 85.154880859375 435.5144397583008 84.82092169189454Q435.17080053710936 84.48696252441407 434.9376010742188 84.30040295410157Q436.1036010742188 83.76800268554688 437.22164123535157 82.98392236328125Q438.33968139648437 82.19984204101563 439.00408166503905 81.30576171875ZM435.4392008056641 82.39872021484375 436.44591833496094 81.54952209472657Q437.1763186035156 81.90152209472656 437.97535876464843 82.36220214843749Q438.77439892578127 82.82288220214843 439.48807897949223 83.3117222290039Q440.20175903320313 83.80056225585938 440.6514390869141 84.23792236328126L439.58576171875 85.19976037597657Q439.17040161132815 84.76240026855469 438.4752014770508 84.26256024169922Q437.78000134277346 83.76272021484375 436.9858012084961 83.26772021484376Q436.19160107421874 82.77272021484376 435.4392008056641 82.39872021484375ZM429.8292021484375 78.72824096679688 431.8171164550781 79.24391967773437 432.2298366699219 86.05863989257813H430.28592236328126Z" fill="#6B7280"/>
  <path d="M481.48223962402346 76.64V98.64H480.51776037597654V76.64Z" fill="#16294E" fill-opacity="0.3"/>
  <path d="M503.4463237170079 96.0V79.994140625H507.10555380184474L512.1593101615945 88.09673850129646Q512.5447410035687 88.72043195411422 512.9447803809253 89.44789383618397Q513.3448197582818 90.1753557182537 513.7575344970796 91.06685082968649Q514.1702492358773 91.95834594111928 514.5842531946035 93.07618001893704H514.2478074622948Q514.1743311096991 92.18135606256752 514.1110594416577 91.17567099948681Q514.0477877736164 90.1699859364061 514.0080414174859 89.24347029667749Q513.9682950613554 88.31695465694887 513.9682950613554 87.67779318879646V79.994140625H517.3202991084534V96.0H513.6511863160687L509.0627793148228 88.65407845273336Q508.555102536527 87.82306104354608 508.1232663366465 87.04725931772634Q507.69143013676603 86.2714575919066 507.2251122234378 85.32689680888916Q506.75879431010964 84.38233602587174 506.1121156721316 83.07522707068051H506.52869807071426Q506.59981150939257 84.23280488082392 506.6630831774339 85.30057884308489Q506.7263548454752 86.36835280534586 506.76481198167744 87.2305217711417Q506.8032691178796 88.09269073693753 506.8032691178796 88.64419574518556V96.0Z" fill="#6B7280"/>
  <path d="M522.5757221839652 82.71535985372327V79.994140625H535.6459653749494V82.71535985372327H530.7569821544236V96.0H527.4745881120389V82.71535985372327Z" fill="#6B7280"/>
  <path d="M547.5063329528009 96.22300749764342Q545.5228946131834 96.22300749764342 544.0348861184941 95.49049781073256Q542.5468776238049 94.7579881238217 541.724133037133 93.44282187205428Q540.9013884504612 92.12765562028684 540.9013884504612 90.3854867594432V79.994140625H544.1837824928459V90.11413810614737Q544.1837824928459 91.04892132078179 544.5983226426154 91.7718689652489Q545.0128627923847 92.494816609716 545.7580465288344 92.9089270195093Q546.5032302652841 93.32303742930262 547.5063329528009 93.32303742930262Q548.515236474044 93.32303742930262 549.2608499504697 92.9089270195093Q550.0064634268955 92.494816609716 550.4185328997779 91.7718689652489Q550.8306023726603 91.04892132078179 550.8306023726603 90.11413810614737V79.994140625H554.112996415045V90.3854867594432Q554.112996415045 92.12765562028684 553.2873514115101 93.44282187205428Q552.4617064079753 94.7579881238217 550.9757388501969 95.49049781073256Q549.4897712924185 96.22300749764342 547.5063329528009 96.22300749764342Z" fill="#6B7280"/>
  <path d="M292.04 134.92H303.96V140.72H292.04ZM311.32 126.44H317.4V154.52Q317.4 156.24 317.62 156.68Q317.84 157.12 318.72 157.12Q318.92 157.12 319.32000000000005 157.12Q319.72 157.12 320.18 157.12Q320.64 157.12 321.03999999999996 157.12Q321.44 157.12 321.6 157.12Q322.28 157.12 322.62 156.38Q322.96 155.64 323.12 153.74Q323.28 151.84 323.4 148.36Q324.12 148.92 325.12 149.45999999999998Q326.12 150.0 327.15999999999997 150.42000000000002Q328.2 150.84 328.96 151.04Q328.72 155.24 328.08000000000004 157.82Q327.44 160.4 326.06 161.60000000000002Q324.68 162.8 322.24 162.8Q321.88 162.8 321.28 162.8Q320.68 162.8 319.98 162.8Q319.28 162.8 318.67999999999995 162.8Q318.08 162.8 317.76 162.8Q315.28 162.8 313.88 162.04000000000002Q312.48 161.28 311.9 159.45999999999998Q311.32 157.64 311.32 154.48ZM300.8 126.4H306.88V156.48H300.8ZM290.52 157.16Q292.72 156.56 295.72 155.6Q298.72 154.64 302.08000000000004 153.51999999999998Q305.44 152.4 308.68 151.28L309.72 156.52Q306.92 157.72 304.0 158.88Q301.08 160.04 298.32 161.14Q295.56 162.24 293.12 163.16ZM314.48 134.84H327.48V140.64H314.48Z" fill="#16294E"/>
  <path d="M351.84 137.16V139.72H356.92V137.16ZM346.44 133.48H362.68V143.44H346.44ZM347.12 148.44V151.96H348.96V148.44ZM342.48 144.64H353.88V155.76H342.48ZM359.88 148.44V151.96H361.84V148.44ZM355.16 144.64H366.84000000000003V155.76H355.16ZM334.2 126.96000000000001H368.6V132.04H334.2ZM335.76 126.96000000000001H341.44V152.44Q341.44 154.2 341.86 155.26Q342.28 156.32 343.36 156.8Q344.44 157.28 346.44 157.28Q347.0 157.28 348.15999999999997 157.28Q349.32 157.28 350.82 157.28Q352.32 157.28 353.96000000000004 157.28Q355.6 157.28 357.16 157.28Q358.72 157.28 360.0 157.28Q361.28 157.28 362.0 157.28Q363.4 157.28 364.86 157.2Q366.32 157.12 367.64 156.98000000000002Q368.96 156.84 369.84000000000003 156.68Q369.92 157.36 370.04 158.38Q370.16 159.4 370.32000000000005 160.4Q370.48 161.4 370.6 162.08Q369.72 162.32 368.26 162.42000000000002Q366.8 162.52 365.08000000000004 162.56Q363.36 162.6 361.68 162.6Q361.0 162.6 359.8 162.6Q358.6 162.6 357.1 162.6Q355.6 162.6 354.02 162.6Q352.44 162.6 351.0 162.6Q349.56 162.6 348.48 162.6Q347.4 162.6 346.92 162.6Q343.12 162.6 340.64 161.68Q338.16 160.76 336.96000000000004 158.45999999999998Q335.76 156.16 335.76 152.04Z" fill="#16294E"/>
  <path d="M376.08 129.28H411.76V134.12H376.08ZM386.8 139.04V140.4H401.36V139.04ZM381.0 135.24H407.52V144.2H381.0ZM377.0 145.44H409.44V150.12H382.64V163.8H377.0ZM405.2 145.44H411.08V158.72Q411.08 160.56 410.56 161.46Q410.04 162.36 408.72 162.88Q407.44 163.32 405.68 163.42000000000002Q403.92 163.52 401.68 163.48Q401.48 162.52 400.98 161.36Q400.48 160.2 400.0 159.32Q400.76 159.36 401.68 159.4Q402.6 159.44 403.36 159.42000000000002Q404.12 159.4 404.36 159.4Q405.2 159.4 405.2 158.68ZM390.16 126.92 396.24 125.44Q396.8 126.68 397.44 128.24Q398.08 129.8 398.4 130.88L391.96 132.6Q391.72 131.52 391.18 129.9Q390.64 128.28 390.16 126.92ZM388.04 151.08H402.64V160.44H388.04V156.52H397.56V155.0H388.04ZM384.84 151.08H390.2V161.88H384.84Z" fill="#16294E"/>
  <path d="M419.32 132.64H452.84000000000003V153.44H446.72V138.36H425.16V153.64H419.32ZM422.32 145.84H450.08V151.56H422.32ZM432.84 125.8H439.0V163.8H432.84Z" fill="#16294E"/>
  <path d="M459.64 152.2H496.2V156.76H459.64ZM467.64 145.48H484.4V149.48H467.64ZM475.6 151.44H481.32V158.6Q481.32 160.44 480.82 161.48000000000002Q480.32 162.52 478.92 163.08Q477.52 163.6 475.78 163.7Q474.04 163.8 471.84 163.8Q471.64 162.64 471.12 161.27999999999997Q470.6 159.92 470.04 158.92Q470.88 158.96 471.86 158.98000000000002Q472.84 159.0 473.65999999999997 159.0Q474.48 159.0 474.76 159.0Q475.24 159.0 475.42 158.88Q475.6 158.76 475.6 158.4ZM482.92 145.48H484.32L485.52 145.2L488.76 148.2Q487.24 149.28 485.48 150.38Q483.72 151.48 481.86 152.5Q480.0 153.52 478.12 154.36Q477.72 153.68 476.92 152.82Q476.12 151.96 475.6 151.44Q476.92 150.8 478.34000000000003 149.9Q479.76 149.0 480.98 148.07999999999998Q482.2 147.16 482.92 146.44ZM460.24 140.24H495.88V149.0H490.12V144.36H465.72V149.0H460.24ZM488.32 127.0H493.84000000000003Q493.72 129.56 493.56 132.32Q493.4 135.07999999999998 493.2 137.66Q493.0 140.24 492.76 142.2H487.16Q487.44 140.16 487.68 137.57999999999998Q487.92 135.0 488.08000000000004 132.24Q488.24 129.48 488.32 127.0ZM483.32 127.0H490.56V130.52H483.32ZM470.76 125.92 473.08 129.2Q471.12 129.96 468.7 130.51999999999998Q466.28 131.07999999999998 464.4 131.4L462.44 128.28Q463.68 128.04 465.18 127.64Q466.68 127.24000000000001 468.15999999999997 126.78Q469.64 126.32 470.76 125.92ZM465.16 131.44H472.76V134.92H465.16ZM465.2 135.84H472.8V139.32H465.2ZM483.6 131.44H490.12V134.92H483.6ZM483.4 135.84H489.92V139.32H483.4ZM479.28 125.96000000000001 482.92 127.03999999999999Q481.6 128.88 479.52 130.51999999999998Q477.44 132.16 475.4 133.2Q474.92 132.68 474.02 131.9Q473.12 131.12 472.44 130.68Q474.52 129.84 476.36 128.6Q478.2 127.36 479.28 125.96000000000001ZM473.36 128.28 475.92 126.16Q477.12 126.72 478.42 127.48Q479.72 128.24 480.88 129.04000000000002Q482.04 129.84 482.8 130.52L480.08 132.88Q479.4 132.2 478.26 131.38Q477.12 130.56 475.84000000000003 129.74Q474.56 128.92 473.36 128.28ZM479.28 132.72 482.96 133.84Q481.52 135.88 479.32 137.64Q477.12 139.4 474.88 140.56Q474.44 140.0 473.56 139.12Q472.68 138.24 472.08 137.76Q474.2 136.88 476.18 135.56Q478.16 134.24 479.28 132.72ZM473.08 135.2 475.72 133.04Q476.96 133.68 478.36 134.5Q479.76 135.32 481.03999999999996 136.2Q482.32 137.07999999999998 483.12 137.84L480.32 140.24Q479.6 139.48 478.38 138.57999999999998Q477.16 137.68 475.76 136.78Q474.36 135.88 473.08 135.2ZM462.44 128.28 467.92 129.64 468.6 141.96H463.2Z" fill="#16294E"/>
  <path d="M508.28 132.76H536.2V138.44H508.28ZM506.68 144.56H534.6V150.16H506.68ZM501.92 157.04H538.32V162.72H501.92ZM517.04 125.8H523.12V159.84H517.04ZM507.64 126.2 513.68 127.56Q512.8 130.64 511.55999999999995 133.68Q510.32 136.72 508.88 139.34Q507.44 141.96 505.88 143.88Q505.32 143.36 504.36 142.7Q503.4 142.04 502.4 141.39999999999998Q501.4 140.76 500.64 140.36Q502.2 138.72 503.52 136.44Q504.84 134.16 505.9 131.51999999999998Q506.96 128.88 507.64 126.2Z" fill="#16294E"/>
  <path d="M548.76 129.76H554.4V163.8H548.76ZM543.08 137.04H559.32V142.44H543.08ZM549.08 139.24 552.4 140.72Q551.84 142.88 551.08 145.22Q550.32 147.56 549.4200000000001 149.86Q548.52 152.16 547.46 154.2Q546.4 156.24 545.24 157.76Q544.84 156.48 544.06 154.88Q543.28 153.28 542.6 152.16Q543.64 150.96 544.5999999999999 149.38Q545.56 147.8 546.42 146.04000000000002Q547.28 144.28 547.96 142.54000000000002Q548.64 140.8 549.08 139.24ZM556.32 126.03999999999999 559.48 130.8Q557.28 131.56 554.8 132.16Q552.32 132.76 549.78 133.16Q547.24 133.56 544.84 133.84Q544.68 132.88 544.22 131.57999999999998Q543.76 130.28 543.32 129.36Q545.64 129.0 547.96 128.5Q550.28 128.0 552.44 127.36Q554.6 126.72 556.32 126.03999999999999ZM554.32 142.48Q554.68 142.8 555.4 143.52Q556.12 144.24 556.94 145.10000000000002Q557.76 145.96 558.44 146.7Q559.12 147.44 559.4 147.76L556.08 152.32Q555.72 151.52 555.2 150.5Q554.68 149.48 554.0799999999999 148.42000000000002Q553.48 147.36 552.9000000000001 146.4Q552.32 145.44 551.84 144.76ZM571.0 125.75999999999999H576.72V163.76H571.0ZM558.52 151.44 580.32 147.56 581.2 153.04 559.44 157.0ZM560.76 131.24 564.56 128.0Q565.6 128.84 566.76 129.88Q567.92 130.92 568.94 131.98Q569.96 133.04 570.56 133.92L566.48 137.52Q565.96 136.64 565.02 135.51999999999998Q564.08 134.4 562.96 133.28Q561.84 132.16 560.76 131.24ZM559.36 141.84 563.08 138.52Q564.16 139.36 565.38 140.4Q566.6 141.44 567.6600000000001 142.5Q568.72 143.56 569.36 144.44L565.36 148.16Q564.8 147.24 563.78 146.12Q562.76 145.0 561.6 143.88Q560.44 142.76 559.36 141.84Z" fill="#16294E"/>
  <path d="M585.64 152.2H622.2V156.76H585.64ZM593.64 145.48H610.4V149.48H593.64ZM601.6 151.44H607.32V158.6Q607.32 160.44 606.82 161.48000000000002Q606.32 162.52 604.92 163.08Q603.52 163.6 601.78 163.7Q600.04 163.8 597.84 163.8Q597.64 162.64 597.12 161.27999999999997Q596.6 159.92 596.04 158.92Q596.88 158.96 597.86 158.98000000000002Q598.84 159.0 599.6600000000001 159.0Q600.48 159.0 600.76 159.0Q601.24 159.0 601.4200000000001 158.88Q601.6 158.76 601.6 158.4ZM608.92 145.48H610.32L611.52 145.2L614.76 148.2Q613.24 149.28 611.48 150.38Q609.72 151.48 607.86 152.5Q606.0 153.52 604.12 154.36Q603.72 153.68 602.9200000000001 152.82Q602.12 151.96 601.6 151.44Q602.92 150.8 604.3399999999999 149.9Q605.76 149.0 606.98 148.07999999999998Q608.2 147.16 608.92 146.44ZM586.24 140.24H621.88V149.0H616.12V144.36H591.72V149.0H586.24ZM614.32 127.0H619.84Q619.72 129.56 619.56 132.32Q619.4 135.07999999999998 619.2 137.66Q619.0 140.24 618.76 142.2H613.16Q613.44 140.16 613.6800000000001 137.57999999999998Q613.92 135.0 614.0799999999999 132.24Q614.24 129.48 614.32 127.0ZM609.32 127.0H616.56V130.52H609.32ZM596.76 125.92 599.08 129.2Q597.12 129.96 594.7 130.51999999999998Q592.28 131.07999999999998 590.4 131.4L588.44 128.28Q589.68 128.04 591.18 127.64Q592.68 127.24000000000001 594.16 126.78Q595.64 126.32 596.76 125.92ZM591.16 131.44H598.76V134.92H591.16ZM591.2 135.84H598.8V139.32H591.2ZM609.6 131.44H616.12V134.92H609.6ZM609.4 135.84H615.92V139.32H609.4ZM605.28 125.96000000000001 608.92 127.03999999999999Q607.6 128.88 605.52 130.51999999999998Q603.44 132.16 601.4 133.2Q600.92 132.68 600.02 131.9Q599.12 131.12 598.44 130.68Q600.52 129.84 602.36 128.6Q604.2 127.36 605.28 125.96000000000001ZM599.36 128.28 601.92 126.16Q603.12 126.72 604.4200000000001 127.48Q605.72 128.24 606.88 129.04000000000002Q608.04 129.84 608.8 130.52L606.08 132.88Q605.4 132.2 604.26 131.38Q603.12 130.56 601.8399999999999 129.74Q600.56 128.92 599.36 128.28ZM605.28 132.72 608.96 133.84Q607.52 135.88 605.3199999999999 137.64Q603.12 139.4 600.88 140.56Q600.44 140.0 599.56 139.12Q598.68 138.24 598.08 137.76Q600.2 136.88 602.1800000000001 135.56Q604.16 134.24 605.28 132.72ZM599.08 135.2 601.72 133.04Q602.96 133.68 604.36 134.5Q605.76 135.32 607.04 136.2Q608.32 137.07999999999998 609.12 137.84L606.32 140.24Q605.6 139.48 604.38 138.57999999999998Q603.16 137.68 601.76 136.78Q600.36 135.88 599.08 135.2ZM588.44 128.28 593.92 129.64 594.6 141.96H589.2Z" fill="#16294E"/>
  <path d="M644.2 127.68H664.2V133.07999999999998H644.2ZM643.2 142.0H665.0V147.48H643.2ZM655.48 130.12H661.0V163.8H655.48ZM646.68 130.2H652.12V143.52Q652.12 146.0 651.9200000000001 148.8Q651.72 151.6 651.14 154.38Q650.56 157.16 649.46 159.7Q648.36 162.24 646.52 164.16Q646.04 163.64 645.26 163.0Q644.48 162.36 643.64 161.76Q642.8 161.16 642.16 160.8Q643.68 159.12 644.5799999999999 156.96Q645.48 154.8 645.94 152.42000000000002Q646.4 150.04 646.54 147.74Q646.68 145.44 646.68 143.48ZM627.56 127.52H642.44V132.76H627.56ZM632.32 139.92H642.08V159.04H632.32V153.96H637.16V145.0H632.32ZM631.88 130.12 637.12 131.32Q636.36 135.12 635.1800000000001 138.96Q634.0 142.8 632.36 146.18Q630.72 149.56 628.52 152.08Q628.44 151.28 628.1400000000001 149.94Q627.84 148.6 627.44 147.22Q627.04 145.84 626.64 145.0Q628.68 142.28 629.94 138.36Q631.2 134.44 631.88 130.12ZM629.84 139.92H634.6V161.88H629.84Z" fill="#16294E"/>
  <path d="M672.48 147.0H695.72V152.36H672.48ZM692.48 147.0H698.64V155.92Q698.64 156.96 698.8 157.22Q698.96 157.48 699.48 157.48Q699.6 157.48 699.78 157.48Q699.96 157.48 700.1800000000001 157.48Q700.4 157.48 700.5999999999999 157.48Q700.8 157.48 700.92 157.48Q701.32 157.48 701.52 157.1Q701.72 156.72 701.8199999999999 155.51999999999998Q701.92 154.32 702.0 151.92Q702.6 152.4 703.5799999999999 152.88Q704.56 153.36 705.6199999999999 153.74Q706.68 154.12 707.48 154.36Q707.2 157.8 706.54 159.74Q705.88 161.68 704.6800000000001 162.44Q703.48 163.2 701.56 163.2Q701.2 163.2 700.78 163.2Q700.36 163.2 699.9200000000001 163.2Q699.48 163.2 699.06 163.2Q698.64 163.2 698.32 163.2Q696.12 163.2 694.8399999999999 162.54Q693.56 161.88 693.02 160.3Q692.48 158.72 692.48 156.0ZM670.72 129.12H705.76V137.48H699.6V134.28H676.56V137.88H670.72ZM682.48 142.88H688.64V148.32Q688.64 150.04 688.28 151.86Q687.92 153.68 687.0 155.46Q686.08 157.24 684.36 158.86Q682.64 160.48 679.94 161.82Q677.24 163.16 673.32 164.12Q672.64 162.96 671.46 161.52Q670.28 160.08 669.24 159.08Q672.64 158.32 675.0 157.32Q677.36 156.32 678.84 155.22Q680.32 154.12 681.1 152.92000000000002Q681.88 151.72 682.1800000000001 150.51999999999998Q682.48 149.32 682.48 148.16ZM680.56 133.28H686.68Q686.44 135.56 685.84 137.46Q685.24 139.36 683.9200000000001 140.84Q682.6 142.32 680.22 143.44Q677.84 144.56 674.04 145.36Q673.68 144.28 672.78 142.88Q671.88 141.48 671.04 140.64Q674.12 140.16 675.94 139.48000000000002Q677.76 138.8 678.7 137.92000000000002Q679.64 137.04 680.02 135.88Q680.4 134.72 680.56 133.28ZM684.16 126.6 690.36 125.64Q690.8 126.92 691.26 128.48Q691.72 130.04 691.92 131.16L685.4 132.32Q685.24 131.24 684.88 129.60000000000002Q684.52 127.96000000000001 684.16 126.6ZM689.68 133.32H695.44V138.64Q695.44 139.4 695.6600000000001 139.76Q695.88 140.12 696.64 140.12Q696.92 140.12 697.48 140.12Q698.04 140.12 698.6800000000001 140.12Q699.32 140.12 699.9000000000001 140.12Q700.48 140.12 700.8 140.12Q701.68 140.12 702.8199999999999 140.01999999999998Q703.96 139.92 704.6 139.76Q704.68 140.88 704.8 142.24Q704.92 143.6 705.08 144.64Q704.44 144.84 703.28 144.92000000000002Q702.12 145.0 701.04 145.0Q700.68 145.0 700.02 145.0Q699.36 145.0 698.62 145.0Q697.88 145.0 697.22 145.0Q696.56 145.0 696.2 145.0Q693.56 145.0 692.16 144.34Q690.76 143.68 690.22 142.26Q689.68 140.84 689.68 138.56Z" fill="#16294E"/>
  <path d="M306.04 175.8H312.76Q312.68 178.04 312.52 180.98Q312.36 183.92 311.88 187.32Q311.4 190.72 310.34 194.28Q309.28 197.84 307.41999999999996 201.34Q305.56 204.84 302.7 208.01999999999998Q299.84 211.2 295.68 213.76Q294.92 212.6 293.6 211.3Q292.28 210.0 290.8 209.0Q294.84 206.76 297.52 203.95999999999998Q300.2 201.16 301.86 198.04Q303.52 194.92 304.38 191.76Q305.24 188.6 305.56 185.62Q305.88 182.64 305.94 180.12Q306.0 177.6 306.04 175.8ZM312.28 180.64Q312.36 181.48 312.56 183.38Q312.76 185.28 313.34000000000003 187.82Q313.92 190.36 315.04 193.22000000000003Q316.16 196.08 318.02 198.9Q319.88 201.72 322.68 204.2Q325.48 206.68 329.4 208.44Q328.04 209.48 326.9 210.86Q325.76 212.24 325.12 213.48Q320.96 211.48 317.98 208.64Q315.0 205.8 313.02 202.54000000000002Q311.04 199.28 309.84000000000003 195.98000000000002Q308.64 192.68 308.0 189.74Q307.36 186.8 307.08000000000004 184.58Q306.8 182.36 306.64 181.28Z" fill="#16294E"/>
  <path d="M334.4 183.56H369.88V189.56H334.4ZM355.28 175.84H361.76V206.48Q361.76 209.04 361.15999999999997 210.39999999999998Q360.56 211.76 359.04 212.44Q357.52 213.16 355.28 213.36Q353.04 213.56 350.04 213.56Q349.92 212.68 349.6 211.56Q349.28 210.44 348.88 209.3Q348.48 208.16 348.04 207.32Q349.2 207.4 350.44 207.44Q351.68 207.48 352.70000000000005 207.48Q353.72 207.48 354.12 207.48Q354.76 207.44 355.02 207.22Q355.28 207.0 355.28 206.44ZM351.96 184.52 357.16 187.84Q355.64 191.0 353.53999999999996 194.16Q351.44 197.32 348.9 200.22Q346.36 203.12 343.54 205.60000000000002Q340.72 208.08 337.72 209.88Q336.92 208.6 335.6 207.1Q334.28 205.6 333.0 204.6Q336.04 203.08 338.86 200.88Q341.68 198.68 344.15999999999997 196.02Q346.64 193.36 348.62 190.42000000000002Q350.6 187.48 351.96 184.52Z" fill="#16294E"/>
  <path d="M393.36 207.52H406.24V212.6H393.36ZM390.56 198.2H409.92V213.6H404.4V203.28H395.8V213.76H390.56ZM389.12 180.12H411.52V185.2H389.12ZM387.64 191.0H413.0V196.16H387.64ZM404.04 184.72 409.36 185.96Q408.88 187.24 408.38 188.5Q407.88 189.76 407.41999999999996 190.83999999999997Q406.96 191.92 406.52 192.76L401.88 191.56Q402.28 190.6 402.7 189.42000000000002Q403.12 188.24 403.48 187.0Q403.84 185.76 404.04 184.72ZM391.44 186.16 396.12 184.8Q396.72 186.04 397.20000000000005 187.5Q397.68 188.96 397.84 190.04L392.88 191.6Q392.8 190.48 392.36 188.94Q391.92 187.4 391.44 186.16ZM396.68 176.44 401.88 175.6Q402.32 176.8 402.65999999999997 178.26Q403.0 179.72 403.12 180.76L397.64 181.72Q397.6 180.68 397.32000000000005 179.18Q397.04 177.68 396.68 176.44ZM375.28 185.24H387.64V190.72H375.28ZM378.96 176.4H384.12V203.24H378.96ZM374.84 203.48Q376.44 202.96 378.56 202.22Q380.68 201.48 383.02 200.62Q385.36 199.76 387.68 198.88L388.76 204.2Q385.68 205.56 382.5 206.92000000000002Q379.32 208.28 376.6 209.44Z" fill="#16294E"/>
  <path d="M418.0 178.92H453.84000000000003V183.96H418.0ZM439.48 184.88 444.24 182.07999999999998Q445.68 183.07999999999998 447.3 184.38Q448.92 185.68 450.38 187.02Q451.84000000000003 188.36 452.76 189.48L447.6 192.64Q446.84 191.56 445.48 190.18Q444.12 188.8 442.53999999999996 187.4Q440.96 186.0 439.48 184.88ZM422.12 191.68Q422.0 191.12 421.7 190.18Q421.4 189.24 421.06 188.2Q420.72 187.16 420.4 186.44Q421.32 186.24 422.14 185.76Q422.96 185.28 424.08 184.48Q424.68 184.07999999999998 425.8 183.2Q426.92 182.32 428.3 181.06Q429.68 179.8 431.1 178.32Q432.52 176.84 433.72 175.28L439.64 177.48Q436.4 181.0 432.67999999999995 184.0Q428.96 187.0 425.56 189.07999999999998V189.2Q425.56 189.2 425.03999999999996 189.44Q424.52 189.68 423.84000000000003 190.07999999999998Q423.16 190.48 422.64 190.89999999999998Q422.12 191.32 422.12 191.68ZM422.12 191.68 422.08 188.0 425.2 186.36 447.08 185.96Q447.16 186.96 447.42 188.22Q447.68 189.48 447.84 190.28Q441.56 190.48 437.28 190.64Q433.0 190.8 430.3 190.9Q427.6 191.0 426.02 191.1Q424.44 191.2 423.58000000000004 191.33999999999997Q422.72 191.48 422.12 191.68ZM444.72 192.0H451.08V207.76Q451.08 210.04 450.4 211.12Q449.72 212.2 448.08 212.72Q446.44 213.2 444.03999999999996 213.26Q441.64 213.32 438.56 213.32Q438.44 212.2 438.06 210.86Q437.68 209.52 437.2 208.44Q438.24 208.52 439.62 208.56Q441.0 208.6 442.14 208.57999999999998Q443.28 208.56 443.6 208.56Q444.24 208.56 444.48 208.36Q444.72 208.16 444.72 207.68ZM425.72 192.0H446.44V196.72H425.72ZM422.2 192.0H427.88V198.0Q427.88 199.84 427.72 202.0Q427.56 204.16 427.1 206.38Q426.64 208.6 425.79999999999995 210.66Q424.96 212.72 423.64 214.36Q423.16 213.84 422.26 213.16Q421.36 212.48 420.42 211.86Q419.48 211.24 418.8 210.96Q420.4 209.04 421.1 206.74Q421.8 204.44 422.0 202.12Q422.2 199.8 422.2 197.88ZM427.36 204.36Q429.68 204.08 432.96000000000004 203.64Q436.24 203.2 440.0 202.64Q443.76 202.08 447.44 201.52L447.68 205.4Q444.44 206.12 441.12 206.86Q437.8 207.6 434.72 208.24Q431.64 208.88 428.96 209.44ZM428.64 200.08 430.4 196.64Q432.52 196.84 434.98 197.34Q437.44 197.84 439.7 198.46Q441.96 199.08 443.48 199.72L441.6 203.56Q440.16 202.88 437.94000000000005 202.2Q435.72 201.52 433.28 200.94Q430.84 200.36 428.64 200.08Z" fill="#16294E"/>
  <path d="M461.84 188.07999999999998H475.56V192.4H461.84ZM461.84 193.6H475.52V197.92H461.84ZM460.12 182.36H477.24V186.88H460.12ZM464.48 199.24H475.64V211.68H464.48V207.08H470.68V203.8H464.48ZM461.92 199.24H466.8V213.28H461.92ZM464.36 177.72 468.84 175.6Q469.65176470588233 176.87836734693877 470.44588235294117 178.3991836734694Q471.24 179.92 471.72 181.07999999999998L467.08 183.56Q466.68 182.4 465.88 180.74Q465.08 179.07999999999998 464.36 177.72ZM477.04 188.84H496.68V194.56H477.04ZM483.6 176.51999999999998H489.68V213.8H483.6Z" fill="#16294E"/>
  <path d="M517.16 198.96H522.52V206.88H517.16ZM501.56 209.08H538.48V212.76H501.56ZM501.8 181.96H538.2V184.96H501.8ZM501.64 193.72H538.56V197.2H501.64ZM504.4 189.8H535.92V192.76H504.4ZM506.0 178.12H534.36V188.84H505.76V185.92H528.48V181.04H506.0ZM516.76 175.76H522.68V195.56H516.76ZM511.88 204.4V205.48H528.4V204.4ZM511.88 200.84V201.88H528.4V200.84ZM506.2 198.2H534.4V208.12H506.2Z" fill="#16294E"/>
<rect x="290" y="230" width="156" height="42" rx="6" fill="#BA0C2F"/>
  <path d="M343.34079296875 243.052919921875H351.278576171875V245.570107421875H343.34079296875ZM343.864451171875 238.59326171875 346.25059375 239.03679296875Q345.84259375 241.32544140625 345.25459375 243.6064140625Q344.66659375 245.88738671875 343.9492333984375 247.9189990234375Q343.231873046875 249.950611328125 342.367873046875 251.51398046875Q342.183548828125 251.2787734375 341.838900390625 250.93268359375Q341.494251953125 250.58659375 341.13760351562496 250.2431435546875Q340.780955078125 249.899693359375 340.511189453125 249.701927734375Q341.310865234375 248.349765625 341.93726171875 246.55072070312502Q342.563658203125 244.75167578125001 343.05013574218754 242.7032705078125Q343.53661328125 240.654865234375 343.864451171875 238.59326171875ZM347.291171875 244.6806484375 349.725314453125 244.870251953125Q349.31491796875 249.0064140625 348.332359375 252.129296875Q347.34980078125 255.2521796875 345.5337197265625 257.49762109375Q343.717638671875 259.7430625 340.75459375 261.236341796875Q340.650431640625 260.9584140625 340.404666015625 260.55760351562503Q340.158900390625 260.15679296875 339.87569335937496 259.74926171874995Q339.592486328125 259.34173046875 339.370720703125 259.101244140625Q342.0851171875 257.87773046875 343.71279296875 255.9169375Q345.34046875 253.95614453125 346.162703125 251.1647119140625Q346.9849375 248.373279296875 347.291171875 244.6806484375ZM344.717962890625 245.371369140625Q345.160521484375 248.367513671875 345.96955761718755 251.019982421875Q346.77859375 253.672451171875 348.14226953125 255.69996484375002Q349.5059453125 257.727478515625 351.561783203125 258.87419921875Q351.278576171875 259.114685546875 350.92720703124996 259.5008564453125Q350.575837890625 259.88702734375 350.26718945312496 260.313279296875Q349.958541015625 260.73953125 349.75549609375 261.09762109375Q347.600775390625 259.681134765625 346.21837890625 257.3903330078125Q344.835982421875 255.09953125 344.0149462890625 252.1156123046875Q343.19391015625 249.131693359375 342.708630859375 245.65985546875ZM334.32061328125 238.606703125H336.482107421875V251.44H334.32061328125ZM332.58403515625 241.849134765625V245.408775390625H338.346361328125V241.849134765625ZM330.446541015625 240.043333984375H340.614900390625V247.228017578125H330.446541015625ZM332.3987734375 249.540666015625V250.59614453125H338.4514609375V249.540666015625ZM330.0313515625 247.9273515625H340.9446484375V252.209458984375H330.0313515625ZM328.763658203125 242.539333984375H331.151189453125V242.689099609375H339.204630859375V242.539333984375H341.891693359375V244.58850390625H339.204630859375V244.43873828125H331.151189453125V244.58850390625H328.763658203125ZM330.250685546875 257.059369140625Q330.8722890625 256.301927734375 331.53661328124997 255.3191259765625Q332.2009375 254.33632421875 332.810541015625 253.28416210937502Q333.42014453125 252.232 333.83102734375 251.287837890625L336.091404296875 251.792810546875Q335.619080078125 252.817134765625 335.0001162109375 253.87601757812502Q334.38115234375 254.934900390625 333.747548828125 255.9004228515625Q333.1139453125 256.8659453125 332.54562109375 257.594107421875ZM330.250685546875 257.059369140625 332.05697265625 255.581892578125Q333.5910625 255.928451171875 335.2477919921875 256.4830908203125Q336.904521484375 257.03773046875 338.414611328125 257.656451171875Q339.924701171875 258.275171875 341.026791015625 258.84061328125L339.22050390625 260.459693359375Q338.17985546875 259.856810546875 336.66976562499997 259.21408984375Q335.15967578125 258.571369140625 333.48422558593745 257.9980087890625Q331.808775390625 257.4246484375 330.250685546875 257.059369140625ZM337.500630859375 252.58432421875H339.75044921875V253.7757109375Q339.75044921875 254.538431640625 339.54356640625 255.3705126953125Q339.33668359375 256.20259375 338.7589990234375 257.03059375Q338.181314453125 257.85859375 337.064828125 258.62515234375Q335.948341796875 259.3917109375 334.1344140625 260.030107421875Q332.320486328125 260.66850390625 329.647837890625 261.124017578125Q329.500955078125 260.72320703125 329.16302734375 260.1714326171875Q328.825099609375 259.619658203125 328.517892578125 259.2802890625Q330.955333984375 258.910216796875 332.57413574218754 258.3920634765625Q334.1929375 257.87391015625 335.17982031250006 257.28375683593754Q336.166703125 256.693603515625 336.666865234375 256.063369140625Q337.16702734375 255.433134765625 337.3338291015625 254.82545898437502Q337.500630859375 254.217783203125 337.500630859375 253.68738671875ZM329.0291171875 253.270703125H341.745296875V255.207548828125H329.0291171875Z" fill="#FFFFFF"/>
  <path d="M361.0895859375 254.451982421875H382.861927734375V256.74980078125H361.0895859375ZM365.768162109375 250.35135156249999H376.29401953125V252.376521484375H365.768162109375ZM370.84508203125 253.784810546875H373.6752421875V258.460919921875Q373.6752421875 259.417099609375 373.41219726562497 259.9487119140625Q373.14915234375 260.48032421875 372.4041796875 260.768810546875Q371.664486328125 261.033296875 370.65744140625 261.0800986328125Q369.650396484375 261.126900390625 368.2828828125 261.126900390625Q368.184 260.557603515625 367.91951367187505 259.88414453125Q367.65502734375 259.210685546875 367.3718203125 258.705712890625Q367.965568359375 258.729712890625 368.57996484375 258.741712890625Q369.194361328125 258.753712890625 369.6837216796875 258.75107324218754Q370.17308203125 258.74843359375 370.346361328125 258.74843359375Q370.634361328125 258.743154296875 370.7397216796875 258.665875Q370.84508203125 258.588595703125 370.84508203125 258.36731640625ZM375.5643984375 250.35135156249999H376.256578125L376.855154296875 250.209748046875L378.482396484375 251.692990234375Q377.59679296875 252.340990234375 376.54079296875 252.9825126953125Q375.48479296875 253.62403515625 374.363513671875 254.204359375Q373.242234375 254.78468359375 372.130072265625 255.251728515625Q371.921748046875 254.907080078125 371.51829785156247 254.475548828125Q371.11484765625 254.044017578125 370.84508203125 253.784810546875Q371.695154296875 253.4166484375 372.6025869140625 252.89776562499998Q373.51001953125 252.3788828125 374.2974521484375 251.832162109375Q375.084884765625 251.28544140625 375.5643984375 250.837603515625ZM361.507658203125 247.2495859375H382.56962109375V252.194107421875H379.7154609375V249.33091796875H364.2307734375V252.194107421875H361.507658203125ZM378.566830078125 239.395333984375H381.30338671875Q381.23138671875 240.87326171875 381.13538671875 242.492306640625Q381.03938671875 244.1113515625 380.91938671875 245.62767578125Q380.79938671875 247.144 380.660666015625 248.277765625H377.88666796875Q378.049388671875 247.101279296875 378.188109375 245.5823154296875Q378.326830078125 244.0633515625 378.422830078125 242.444306640625Q378.518830078125 240.82526171875 378.566830078125 239.395333984375ZM375.24479296875 239.395333984375H379.6838203125V241.19585546875H375.24479296875ZM367.75102734375 238.73149609375 368.93185546875 240.388017578125Q367.803369140625 240.8281796875 366.38832421875 241.1404228515625Q364.973279296875 241.452666015625 363.866396484375 241.634107421875L362.875171875 240.06302734375Q363.603333984375 239.924306640625 364.48749609375 239.6975048828125Q365.371658203125 239.470703125 366.238541015625 239.21054101562498Q367.105423828125 238.95037890625 367.75102734375 238.73149609375ZM364.26432421875 242.02237890625H368.755693359375V243.8041796875H364.26432421875ZM364.32 244.630703125H368.811369140625V246.41250390625H364.32ZM375.396955078125 242.02237890625H379.45149609375V243.8041796875H375.396955078125ZM375.27167578125 244.630703125H379.305099609375V246.41250390625H375.27167578125ZM372.910541015625 238.750216796875 374.7619453125 239.292630859375Q373.964666015625 240.396630859375 372.7193056640625 241.38327050781248Q371.4739453125 242.36991015625 370.255224609375 243.009748046875Q370.01473828125 242.74526171875 369.553927734375 242.345892578125Q369.0931171875 241.9465234375 368.74846875000003 241.7247578125Q369.991189453125 241.183802734375 371.116306640625 240.40548730468748Q372.241423828125 239.627171875 372.910541015625 238.750216796875ZM369.263513671875 240.036630859375 370.567224609375 238.933568359375Q371.31362109375 239.27484765625 372.120017578125 239.736126953125Q372.9264140625 240.19740625 373.6461708984375 240.6800458984375Q374.365927734375 241.162685546875 374.832486328125 241.581244140625L373.453892578125 242.807189453125Q373.024775390625 242.38863085937498 372.31965820312496 241.8913515625Q371.614541015625 241.394072265625 370.814865234375 240.9047119140625Q370.015189453125 240.4153515625 369.263513671875 240.036630859375ZM372.931658203125 242.8009375 374.801783203125 243.372630859375Q373.937783203125 244.570234375 372.6257021484375 245.620955078125Q371.31362109375 246.67167578125 369.985458984375 247.36767578125Q369.763693359375 247.08446874999998 369.31224316406247 246.6382978515625Q368.86079296875 246.192126953125 368.5535859375 245.946361328125Q369.8255859375 245.39196484375 371.029423828125 244.5682890625Q372.23326171875 243.74461328125 372.931658203125 242.8009375ZM369.127189453125 244.1411171875 370.468341796875 243.029892578125Q371.23873828125 243.413892578125 372.094576171875 243.91117187499998Q372.9504140625 244.408451171875 373.72369335937503 244.9390908203125Q374.49697265625 245.46973046875 374.982251953125 245.9362890625L373.5609375 247.180955078125Q373.11837890625 246.714396484375 372.3731806640625 246.17175683593752Q371.627982421875 245.62911718750001 370.7747841796875 245.0891171875Q369.9215859375 244.5491171875 369.127189453125 244.1411171875ZM362.875171875 240.06302734375 365.60356640625 240.75232421875 366.03268359375 248.16544140625H363.3522890625Z" fill="#FFFFFF"/>
  <path d="M401.487189453125 258.14843359375H415.230576171875V260.74050390625H401.487189453125ZM405.292666015625 245.891658203125H411.883009765625V248.4650078125H405.292666015625ZM405.292666015625 251.98140625H411.883009765625V254.51203515625H405.292666015625ZM403.349568359375 239.830703125H413.70850390625003V259.4953515625H410.971947265625V242.43621484375H405.97380078125V259.4953515625H403.349568359375ZM399.1020546875 248.483693359375 401.202107421875 247.815513671875Q401.524666015625 248.626234375 401.82322460937496 249.550234375Q402.121783203125 250.474234375 402.3697021484375 251.344955078125Q402.61762109375 252.21567578125 402.742900390625 252.858396484375L400.477244140625 253.65473828125Q400.37596484375 252.988017578125 400.15876660156255 252.0959365234375Q399.941568359375 251.20385546875 399.67373046875 250.261134765625Q399.405892578125 249.3184140625 399.1020546875 248.483693359375ZM396.662216796875 254.78850390625 398.869314453125 254.35553125Q399.109314453125 255.60353125 399.29459375 257.0461708984375Q399.479873046875 258.488810546875 399.54659375 259.56353125L397.21661328125 260.039224609375Q397.211333984375 259.319224609375 397.1220546875 258.41922460937496Q397.032775390625 257.519224609375 396.91949609375 256.5618642578125Q396.806216796875 255.60450390625 396.662216796875 254.78850390625ZM393.677568359375 254.459693359375 396.02626953125 254.8470625Q395.917314453125 256.452666015625 395.63891796875 258.05274707031253Q395.360521484375 259.652828125 394.976521484375 260.762107421875Q394.717314453125 260.62050390625 394.2951435546875 260.46017968750004Q393.87297265625 260.29985546875 393.44144140624996 260.16497265625003Q393.00991015625 260.03008984375 392.707982421875 259.949927734375Q393.126541015625 258.89153125 393.3475771484375 257.4076123046875Q393.56861328125 255.923693359375 393.677568359375 254.459693359375ZM393.44767578125 248.14050390625Q393.386234375 247.876017578125 393.2352705078125 247.4298466796875Q393.084306640625 246.98367578124999 392.9146220703125 246.509423828125Q392.7449375 246.035171875 392.58461328125 245.695802734375Q392.9609375 245.591640625 393.2969375 245.25708203124998Q393.6329375 244.9225234375 394.022216796875 244.389244140625Q394.21949609375 244.125244140625 394.58333398437503 243.5360458984375Q394.947171875 242.94684765625 395.4029287109375 242.127009765625Q395.858685546875 241.307171875 396.30772167968746 240.367333984375Q396.7567578125 239.42749609375 397.10043359375 238.4569375L399.636341796875 239.523044921875Q398.706107421875 241.485279296875 397.4794677734375 243.4211171875Q396.252828125 245.356955078125 395.01826953125 246.770072265625V246.831513671875Q395.01826953125 246.831513671875 394.78186425781246 246.9637568359375Q394.545458984375 247.096 394.23297265625 247.3084052734375Q393.920486328125 247.520810546875 393.68408105468745 247.73585546875Q393.44767578125 247.950900390625 393.44767578125 248.14050390625ZM393.44767578125 248.14050390625 393.37279296875 246.176775390625 394.542576171875 245.415478515625 398.80544140625 245.109244140625Q398.6931171875 245.627658203125 398.618234375 246.28767578125002Q398.5433515625 246.947693359375 398.524630859375 247.367224609375Q397.103837890625 247.5030625 396.194720703125 247.6069814453125Q395.285603515625 247.710900390625 394.7482431640625 247.8042607421875Q394.2108828125 247.89762109375 393.9173603515625 247.97634179687498Q393.623837890625 248.0550625 393.44767578125 248.14050390625ZM393.6291171875 253.714755859375Q393.56767578125 253.45026953125 393.4073515625 252.97865722656252Q393.24702734375 252.507044921875 393.067982421875 251.9953515625Q392.8889375 251.483658203125 392.72861328125 251.125568359375Q393.209099609375 251.02140625 393.653099609375 250.621568359375Q394.097099609375 250.22173046875 394.686541015625 249.57373046875Q395.01726171875 249.23773046875 395.610541015625 248.4963701171875Q396.2038203125 247.755009765625 396.93437890625 246.72300976562502Q397.6649375 245.691009765625 398.3940546875 244.4842890625Q399.123171875 243.277568359375 399.7202890625 242.05884765625L402.106431640625 243.57425195312499Q401.1814765625 245.1606484375 400.060197265625 246.736486328125Q398.93891796875 248.31232421875 397.71611621093746 249.73360351562502Q396.493314453125 251.1548828125 395.26115234375 252.312162109375V252.39232421875Q395.26115234375 252.39232421875 395.01274707031246 252.5312880859375Q394.764341796875 252.670251953125 394.44513476562497 252.873296875Q394.125927734375 253.076341796875 393.8775224609375 253.3007470703125Q393.6291171875 253.52515234375 393.6291171875 253.714755859375ZM393.6291171875 253.714755859375 393.51679296875 251.681423828125 394.710576171875 250.872126953125 401.071513671875 250.112775390625Q400.996630859375 250.617748046875 400.94046875000004 251.284486328125Q400.884306640625 251.951224609375 400.908306640625 252.370755859375Q398.759837890625 252.679873046875 397.4228017578125 252.88915234375Q396.085765625 253.098431640625 395.341765625 253.2397919921875Q394.597765625 253.38115234375 394.2228828125 253.4932333984375Q393.848 253.605314453125 393.6291171875 253.714755859375ZM399.468306640625 254.300341796875 401.552521484375 253.6268828125Q401.909638671875 254.514396484375 402.22403515625 255.575189453125Q402.538431640625 256.635982421875 402.706431640625 257.4169375L400.4940546875 258.189279296875Q400.382216796875 257.389603515625 400.07309960937505 256.3074501953125Q399.763982421875 255.225296875 399.468306640625 254.300341796875Z" fill="#FFFFFF"/>
</svg>