<svg xmlns="http://www.w3.org/2000/svg" width="1040" height="300" viewBox="0 0 1040 300">

<g transform="translate(7.61,30.59) scale(1.2439)"><rect x="39.5" y="146" width="13" height="22" rx="6" fill="#BA0C2F"></rect><rect x="57.5" y="126" width="13" height="42" rx="6" fill="#BA0C2F"></rect><rect x="75.5" y="106" width="13" height="62" rx="6" fill="#BA0C2F"></rect><rect x="93.5" y="78" width="13" height="90" rx="6" fill="#16294E"></rect><rect x="111.5" y="106" width="13" height="62" rx="6" fill="#BA0C2F"></rect><rect x="129.5" y="126" width="13" height="42" rx="6" fill="#BA0C2F"></rect><rect x="147.5" y="146" width="13" height="22" rx="6" fill="#BA0C2F"></rect><path d="M100,27 L103.8,42.2 L119,46 L103.8,49.8 L100,65 L96.2,49.8 L81,46 L96.2,42.2 Z" fill="#B6892B"></path></g>
<line x1="262" y1="72" x2="262" y2="240" stroke="rgba(22,41,78,0.30)" stroke-width="2"></line>
<text x="292" y="96" font-family="Noto Sans TC, sans-serif" font-size="22" font-weight="500" fill="#6B7280"><tspan letter-spacing="5">國立臺灣大學</tspan><tspan dx="16" fill="rgba(22,41,78,0.30)">｜</tspan><tspan dx="10" font-family="Inter, sans-serif" font-weight="700" letter-spacing="3">NTU</tspan></text>
<text x="290" y="160" font-family="Noto Sans TC, sans-serif" font-weight="900" font-size="40" letter-spacing="2" fill="#16294E">北區高中學生科學研究</text>
<text x="290" y="210" font-family="Noto Sans TC, sans-serif" font-weight="900" font-size="40" letter-spacing="2" fill="#16294E">人才培育計畫</text>
<rect x="290" y="230" width="156" height="42" rx="6" fill="#BA0C2F"></rect>
<text x="372" y="259" text-anchor="middle" font-family="Noto Sans TC, sans-serif" font-weight="700" font-size="24" letter-spacing="8" fill="#FFFFFF">數學組</text>
</svg>